<svg xmlns="http://www.w3.org/2000/svg" version="1.2" viewBox="0 0 236.16 112.21"><defs><clipPath id="a"><path d="M213 53h23.16v27H213Zm0 0"/></clipPath><clipPath id="b"><path d="M143 85h25v27.21h-25Zm0 0"/></clipPath><clipPath id="c"><path d="M171 86h24v26.21h-24Zm0 0"/></clipPath><clipPath id="d"><path d="M42.898.012H47.2v.097h-4.3ZM41.5.109H48v.102h-6.5Zm-.5.102h7.7v.098H41Zm-.602.098h8.903V.41h-8.903Zm-.597.101h10.097v.102H39.801Zm-.602.102h11.2v.097h-11.2Zm-.597.097h12.097v.102H38.602ZM38.3.711H51v.098H38.3Zm-.403.098h13.5V.91h-13.5ZM37.5.91h14.2v.102H37.5Zm-.3.102H52v.097H37.2Zm-.4.097h15.598v.102H36.801Zm-.402.102H52.7v.098H36.4Zm-.296.098H53v.101H36.102Zm-.403.101h17.5v.102H35.7Zm-.3.102h18v.097h-18Zm-.297.097h18.5v.102h-18.5Zm-.204.102h18.903v.098H34.898Zm-.296.098h19.5v.101h-19.5Zm-.301.101h20v.102h-20ZM34 2.012h20.5v.097H34Zm-.2.097h20.9v.102H33.8Zm-.3.102h21.398v.098H33.5Zm-.3.098h22v.101h-22Zm-.2.101h22.398v.102H33Zm-.3.102h22.8v.097H32.7Zm-.302.097H55.7v.102H32.4Zm-.199.102h23.7v.098h-23.7ZM32 2.809h24v.101H32Zm-.2.101h24.4v.102H31.8Zm-.198.102h24.796v.097H31.602Zm-.204.097H56.5v.102H31.398Zm-.199.102h25.5v.098H31.2Zm-.3.098H56.8v.101H30.898Zm-.2.101H57v.102H30.7Zm-.199.102h26.7v.097H30.5Zm-.2.097h27v.102h-27Zm-.198.102h27.296v.098H30.102Zm-.204.098h27.704v.101H29.898Zm-.199.101h28v.102h-28Zm-.199.102h28.3v.097H29.5Zm-.2.097H58v.102H29.3Zm-.198.102h29v.098h-29Zm-.204.098H58.2v.101H28.9Zm-.199.101h29.602v.102H28.699Zm-.097.102h29.796v.097H28.602Zm-.204.097h30.204v.102H28.398Zm-.199.102h30.5v.098H28.2ZM28 4.809h30.8v.101H28Zm-.102.101h31v.102h-31Zm-.199.102H59v.097H27.7Zm-.199.097h31.602v.102H27.5Zm-.2.102h31.9v.098H27.3Zm-.1.098h32.1v.101H27.2Zm-.2.101h32.398v.102H27Zm-.2.102h32.7v.097H26.8Zm-.198.097h33v.102h-33Zm-.102.102h33.3v.098H26.5Zm-.2.098h33.5v.101H26.3Zm-.1.101h33.698v.102H26.2Zm-.2.102h34v.097H26Zm-.102.097h34.204v.102H25.898Zm-.199.102h34.5v.098H25.7Zm-.097.098h13.597v.101H25.602Zm13.796 0h20.903v.101H39.398Zm-14 .101H38v.102H25.398Zm16.704 0h18.296v.102H42.102ZM25.3 6.512h11.5v.097H25.3Zm17.699 0h17.398v.097H43Zm-17.898.097h11.097v.102H25.102Zm18.796 0H60.5v.102H43.898ZM25 6.711h10.602v.098H25Zm19.3 0h16.302v.098H44.3Zm-19.5.098H35v.101H24.8Zm20 0h15.9v.101H44.8Zm-20.1.101h9.8v.102h-9.8Zm20.5 0h15.6v.102H45.2Zm-20.7.102H34v.097h-9.5Zm21.102 0h15.296v.097H45.602Zm-21.204.097h9.204v.102h-9.204Zm21.704 0H61v.102H46.102Zm-21.903.102h9v.098h-9Zm22.2 0H61v.098H46.398Zm-22.297.098h8.796v.101h-8.796Zm22.597 0h14.403v.101H46.699Zm-22.8.101H32.5v.102h-8.602Zm23 0h14.3v.102H46.9ZM23.8 7.512h8.3v.097h-8.3Zm23.398 0h14.102v.097H47.199Zm-23.597.097h8.097v.102h-8.097Zm23.898 0h13.898v.102H47.5Zm-24 .102h7.898v.098H23.5Zm24.3 0h13.7v.098H47.8Zm-24.5.098h7.9v.101h-7.9Zm24.802 0h13.5v.101h-13.5Zm-24.903.101h7.7v.102h-7.7Zm25.102 0h13.3v.102h-13.3Zm-25.2.102h7.5v.097h-7.5Zm25.5 0H61.7v.097H48.602ZM23 8.109h7.3v.102H23Zm25.8 0h13v.102h-13Zm-26 .102H30v.098h-7.2Zm26.2 0h12.8v.098H49Zm-26.3.098h7v.101h-7Zm26.5 0h12.698v.101H49.2Zm-26.598.101h6.796v.102h-6.796Zm26.796 0H62v.102H49.398ZM22.5 8.512h6.7v.097h-6.7Zm27.102 0H62v.097H49.602ZM22.3 8.609h6.597v.102h-6.597Zm27.5 0h12.3v.102h-12.3Zm-27.602.102h6.5v.098h-6.5ZM50 8.71h12.102v.098H50Zm-27.898.098H28.5v.101h-6.398Zm28.097 0h12v.101h-12Zm-28.3.101H28.3v.102h-6.403Zm28.5 0H62.3v.102H50.398ZM21.8 9.012H28v.097h-6.2Zm28.699 0h11.8v.097H50.5Zm-28.8.097h6.1v.102h-6.1Zm29 0h11.698v.102H50.7Zm-29.098.102h6v.098h-6Zm29.199 0H62.5v.098H50.8Zm-29.403.098h5.903v.101h-5.903Zm29.602 0h11.5v.101H51Zm-29.7.101h5.802v.102H21.3Zm29.9 0h11.402v.102H51.199Zm-30 .102h5.698v.097H21.2Zm30.1 0h11.4v.097H51.3ZM21 9.609h5.7v.102H21Zm30.5 0h11.2v.102H51.5Zm-30.602.102H26.5v.098h-5.602Zm30.704 0H62.8v.098H51.6ZM20.8 9.809h5.5v.101h-5.5Zm31 0h11v.101h-11Zm-31.102.101h5.403v.102h-5.403Zm31.2 0h11v.102h-11Zm-31.399.102h5.398v.097H20.5Zm31.602 0H63v.097H52.102Zm-31.704.097H25.7v.102h-5.3Zm31.801 0H63v.102H52.2Zm-31.898.102H25.5v.098h-5.2Zm32 0h10.8v.098h-10.8Zm-32.102.098h5.102v.101h-5.102Zm32.301 0h10.602v.101H52.5Zm-32.398.101h5v.102h-5Zm32.5 0h10.597v.102H52.602ZM20 10.512h5v.097h-5Zm32.7 0h10.5v.097H52.7Zm-32.802.097h4.903v.102h-4.903Zm33 0h10.403v.102H52.898Zm-33.097.102h4.8v.098h-4.8Zm33.199 0h10.3v.098H53Zm-33.3.098h4.698v.101H19.7Zm33.402 0h10.296v.101H53.102ZM19.5 10.91h4.7v.102h-4.7Zm33.7 0h10.198v.102H53.2Zm-33.802.102H24v.097h-4.602Zm33.903 0H63.5v.097H53.3Zm-34 .097h4.597v.102h-4.597Zm34.097 0H63.5v.102H53.398Zm-34.199.102h4.5v.098h-4.5Zm34.301 0h10.102v.098H53.5Zm-34.398.098H23.5v.101h-4.398Zm34.5 0h10v.101h-10ZM19 11.41h4.398v.102H19Zm34.8 0h9.9v.102h-9.9Zm-34.902.102H23.2v.097h-4.3Zm35 0H63.7v.097h-9.8Zm-35.097.097h4.3v.102h-4.3Zm35.199 0h9.8v.102H54Zm-35.3.102h4.198v.098H18.7Zm35.402 0H63.8v.098h-9.7Zm-35.602.098h4.2v.101h-4.2Zm35.7 0h9.6v.101h-9.6Zm-35.802.101h4.204v.102h-4.204Zm35.903 0h9.597v.102h-9.597Zm-36 .102h4.097v.097h-4.097Zm36.097 0h9.5v.097h-9.5Zm-36.199.097h4.102v.102h-4.102Zm36.301 0H64v.102h-9.5Zm-36.398.102h4v.098h-4Zm36.5 0H64v.098h-9.398ZM18 12.309h3.898v.101H18Zm-.102.101h3.903v.102h-3.903ZM54.7 12.31h9.403v.203h-9.403Zm-36.898.203h3.8v.097h-3.8Zm37 0h9.398v.097h-9.398Zm-37.102.097H21.5v.102h-3.8Zm37.2 0h9.3v.102h-9.3Zm-37.297.102H21.3v.098h-3.7Zm37.398 0h9.3v.098H55Zm-37.5.098h3.7v.101h-3.7Zm37.602 0H64.3v.101h-9.2Zm-37.704.101h3.704v.102h-3.704Zm37.801 0h9.102v.102h-9.102Zm-37.898.102h3.597v.097h-3.597Zm-.102.097h3.602v.102h-3.602Zm38.102-.097h9.097v.199h-9.097Zm-38.2.199H20.7v.098h-3.597Zm38.297 0h9v.098h-9ZM17 13.309h3.5v.101H17Zm38.5 0h9v.101h-9Zm-38.602.101h3.5v.102h-3.5Zm38.704 0H64.5v.102h-8.898Zm-38.801.102h3.398v.097h-3.398Zm38.898 0H64.5v.097h-8.8Zm-39 .097h3.403v.102h-3.403Zm39.102 0h8.8v.102h-8.8Zm-39.2.102H20v.098h-3.398Zm39.297 0h8.704v.098h-8.704Zm-39.398.098h3.3v.101h-3.3Zm39.5 0h8.602v.101H56Zm-39.602.101H19.7v.102h-3.3Zm39.602 0h8.7v.102H56Zm-39.7.102h3.2v.097h-3.2Zm39.802 0h8.597v.097h-8.597Zm-39.903.097h3.2v.102h-3.2Zm40 0h8.5v.102h-8.5Zm-40.097.102H19.3v.098h-3.2Zm40.097 0h8.602v.098h-8.602ZM16 14.309h3.102v.101H16Zm40.3 0h8.5v.101h-8.5Zm-40.402.101H19v.102h-3.102Zm40.5 0h8.403v.102h-8.403Zm-40.597.102h3.097v.097h-3.097Zm40.597 0h8.5v.097h-8.5Zm.102.097h8.398v.102H56.5Zm-40.8 0h3.1v.102h-3.1Zm0 .102h3v.098h-3Zm40.902 0h8.296v.098h-8.296Zm-41 .098H18.5v.101h-2.898Zm41 0H65v.101h-8.398ZM15.5 14.91h2.898v.102H15.5Zm41.2 0H65v.102h-8.3Zm-41.302.102h2.903v.097h-2.903Zm41.403 0H65v.097h-8.2Zm-41.5.097h2.898v.102h-2.898Zm41.5 0h8.3v.102h-8.3Zm-41.602.102h2.903v.098h-2.903Zm41.7 0h8.203v.098h-8.204Zm-41.797.098h2.796v.101h-2.796Zm41.898 0h8.102v.101H57Zm-42 .101h2.8v.102H15Zm42 0h8.2v.102H57Zm-42.102.102H17.7v.097h-2.8Zm42.204 0h8.097v.097h-8.097Zm-42.301.097h2.8v.102h-2.8Zm-.102.102h2.7v.098h-2.7Zm42.5-.102h8v.2h-8Zm.102.2h8v.101h-8Zm-42.7 0h2.7v.101h-2.7Zm0 .101H17.2v.102h-2.597Zm-.101.102h2.602v.097H14.5Zm42.898-.102h7.903v.2h-7.903Zm-43 .2H17v.1h-2.602Zm-.097.1h2.5v.099h-2.5Zm43.199-.1h7.8v.199h-7.8Zm-43.3.199h2.5v.101h-2.5Zm-.098.101h2.5v.102h-2.5Zm43.5-.101h7.796v.203h-7.796ZM14 16.512h2.5v.097H14Zm0 .097h2.398v.102H14Zm43.7-.097h7.698v.199H57.7Zm-43.802.199h2.403v.098h-2.403Zm43.903 0h7.597v.098h-7.597Zm-44 .098h2.398v.101h-2.398Zm44 0H65.5v.101h-7.7Zm-44.102.101h2.403v.102h-2.403Zm-.097.102H16v.097h-2.398Zm44.296-.102H65.5v.2h-7.602Zm-44.398.2h2.398v.1H13.5Zm44.5 0h7.5v.199H58Zm-44.602.1h2.403v.099h-2.403Zm0 .099H15.7v.101h-2.3Zm-.097.101H15.5v.102h-2.2Zm44.8-.101h7.5v.203h-7.5Zm-44.902.203h2.2v.097h-2.2Zm-.097.097H15.3v.102h-2.2Zm45.097-.097h7.403v.199h-7.403ZM13 17.71h2.2v.098H13Zm45.3 0h7.302v.098H58.3Zm0 .098h7.4v.101h-7.4Zm-45.402 0h2.204v.101h-2.204Zm0 .101H15v.102h-2.102Zm-.097.102h2.097v.097h-2.097Zm45.597-.102H65.7v.2h-7.3Zm-45.699.2h2.102v.1h-2.102Zm45.801 0h7.2v.199h-7.2Zm-45.898.1h2.097v.099h-2.097Zm0 .099h1.796v.101h-1.796Zm-.102.101h.5v.102h-.5Zm46.102-.101H65.8v.3h-7.2Zm.097.3h7.102v.2h-7.102Zm.102.2h7v.101h-7Zm0 .101h7.097v.2h-7.097Zm.097.2h7v.3h-7Zm.102.3h6.898v.3H59Zm.102.3h6.796v.302h-6.796Zm.097.302H66v.297h-6.8Zm.102.297H66v.3h-6.7Zm.097.3H66v.301h-6.602Zm.102.301H66v.102h-6.5Zm0 .102h6.602v.199H59.5Zm.102.199h6.5v.398h-6.5Zm.097.398h6.403v.5h-6.403Zm.102.5h6.3v.403h-6.3Zm.097.403h6.204v.5h-6.204Zm.102.5h6.102v.398H60Zm.102.398h6v.5h-6Zm.097.5h5.903v.8h-5.903Zm.102.8h5.8v.802h-5.8Zm.097.802h5.704v.297h-5.704Zm0 .297H66v.601h-5.602Zm.102.601H66v.5h-5.5Zm0 .5h5.398v1.2H60.5Zm0 1.2h5.3v.699h-5.3Zm0 .699h5.2v.5h-5.2Zm0 .5h5.102v.601H60.5Zm0 .601h5v.602h-5Zm0 .602h4.898v.5H60.5Zm-.102.5h5v.097h-5Zm0 .097h4.903v.602h-4.903Zm0 .602H65.2v.398h-4.8Zm0 .398h4.704v.301h-4.704Zm-.097.301H65v.399h-4.7Zm0 .399h4.597v.402h-4.597Zm-.102.402h4.602v.398h-4.602Zm0 .398h4.5v.2h-4.5Zm-.097.2h4.597v.203h-4.597Zm0 .203h4.5v.398h-4.5ZM60 34.41h4.5v.399H60Zm0 .399h4.398v.3H60Zm-.102.3h4.5v.102h-4.5Zm0 .102h4.403v.3h-4.403Zm0 .3H64.2v.2h-4.3Zm-.097.2h4.398v.098h-4.398Zm0 .098h4.3v.203h-4.3Zm0 .203H64v.097h-4.2Zm-.102.097H64v.2h-4.3Zm0 .2h4.2v.3h-4.2Zm-.097.3H63.8v.301h-4.2Zm0 .301h4.097v.102h-4.097Zm-.102.102h4.2v.199h-4.2Zm0 .199h4.102v.2H59.5Zm-.102.2h4.204v.1h-4.204Zm0 .1H63.5v.298h-4.102Zm-.097.298h4.097v.3h-4.097Zm0 .3h4v.102h-4Zm-.102.102h4.102v.2h-4.102Zm0 .2h4v.198h-4Zm-.097.198h4.097v.102h-4.097Zm0 .102h4v.2h-4Zm0 .2H63v.1h-3.898Zm-.102.1h4v.2h-4Zm0 .2h3.898v.098H59Zm-.102.098h4v.101h-4Zm0 .101h3.903v.2h-3.903Zm-.097.2h3.898v.3h-3.898Zm-.102.3h3.903v.2h-3.903Zm0 .2H62.5v.1h-3.8Zm-.097.1H62.5v.099h-3.898Zm0 .099h3.796v.3h-3.796Zm-.102.3h3.8v.2h-3.8Zm0 .2h3.7v.101h-3.7Zm-.102.101H62.2v.2h-3.8Zm0 .2h3.704v.1h-3.704Zm-.097.1h3.8v.099h-3.8Zm0 .099H62v.203h-3.7Zm-.102.203h3.7v.297h-3.7Zm-.097.297H61.8v.203h-3.7Zm0 .203h3.597v.097h-3.597Zm-.102.097h3.7v.102H58Zm0 .102h3.602v.098H58Zm-.102.098h3.704v.101h-3.704Zm0 .101H61.5v.2h-3.602Zm-.097.2h3.597v.199h-3.597Zm-.102.199h3.602v.203h-3.602Zm0 .203h3.5v.097h-3.5Zm-.097.097h3.597v.102h-3.597Zm0 .102h3.5v.098h-3.5Zm-.102.098h3.602v.101H57.5Zm0 .101H61v.102h-3.5Zm-.102.102H61v.097h-3.602Zm0 .097h3.5v.2h-3.5Zm-.097.2h3.5v.203h-3.5Zm-.102.203h3.5v.199h-3.5Zm0 .199h3.403v.098h-3.403Zm-.097.098h3.5v.101h-3.5Zm0 .101H60.5v.102h-3.398Zm-.102.102h3.5v.097H57Zm0 .097h3.398v.2H57Zm-.102.2h3.403v.101h-3.403Zm0 .101H60.2v.102h-3.3Zm-.097.102h3.398v.097h-3.398Zm0 .097h3.3v.102h-3.3Zm-.102.102h3.403v.098h-3.403Zm0 .098H60v.203h-3.3Zm-.097.203h3.296v.199h-3.296Zm-.102.199h3.3v.2h-3.3Zm-.102.2H59.7v.1h-3.3Zm-.097.1h3.3v.2h-3.3Zm-.102.2H59.5v.2h-3.3Zm-.097.2h3.296v.1h-3.296Zm0 .1H59.3v.098h-3.2ZM56 46.61h3.3v.102H56Zm0 .102h3.2v.098H56Zm-.102.098H59.2v.101h-3.3Zm0 .101h3.204v.102h-3.204Zm-.097.102H59v.199h-3.2Zm-.102.199h3.2v.2h-3.2Zm-.097.2H58.8v.1h-3.2Zm0 .1h3.097v.098h-3.097Zm-.102.098h3.2v.102h-3.2Zm0 .102h3.102v.098H55.5Zm-.102.098h3.204v.101h-3.204Zm0 .101H58.5v.102h-3.102Zm-.097.102h3.097v.199h-3.097Zm-.102.199h3.102v.2h-3.102Zm-.097.2h3.097v.1h-3.097Zm0 .1h3v.098h-3ZM55 48.61h3.102v.102H55Zm0 .102h3v.098h-3Zm-.102.098H58v.101h-3.102Zm-.097.101h3.097v.102h-3.097Zm0 .102h3v.097h-3Zm-.102.097h3v.2h-3Zm-.097.2h3v.101h-3Zm-.102.101h3v.2h-3Zm-.102.2h3v.1h-3Zm0 .1h2.903v.099h-2.903Zm-.097.099h3v.101h-3Zm-.102.101h3v.102h-3Zm0 .102h2.903v.097h-2.903Zm-.097.097h3v.102h-3Zm0 .102H57v.098h-2.898Zm-.102.098h2.898v.203H54Zm-.102.203h2.903v.097h-2.903Zm-.097.097h2.898v.2h-2.898Zm-.102.2h2.903v.101h-2.903Zm0 .101H56.5v.102h-2.8Zm-.097.102h2.796v.097h-2.796Zm-.102.097h2.898v.102H53.5Zm0 .102h2.8v.098h-2.8Zm-.102.098H56.2v.203h-2.8Zm-.097.203h2.8v.097h-2.8Zm-.102.097H56v.102h-2.8Zm0 .102h2.7v.098h-2.7Zm-.097.098h2.796v.101h-2.796ZM53 51.91h2.8v.102H53Zm0 .102h2.7v.097H53Zm-.102.097h2.704v.102h-2.704Zm-.097.102h2.8v.098h-2.8Zm-.102.098H55.5v.101h-2.8Zm0 .101h2.7v.102h-2.7Zm-.097.102H55.3v.097h-2.7Zm-.102.097h2.8v.102h-2.8Zm0 .102h2.7v.098h-2.7Zm-.102.098h2.704v.101h-2.704Zm-.097.101H55v.2h-2.7Zm-.102.2h2.7v.1h-2.7Zm-.097.1H54.8v.099h-2.7Zm0 .099h2.597v.101h-2.597ZM52 53.41h2.602v.102H52Zm-.102.102H54.5v.199h-2.602Zm-.097.199h2.597v.098h-2.597Zm-.102.098h2.602v.101h-2.602Zm-.097.101h2.597v.102h-2.597Zm0 .102h2.5v.097h-2.5Zm-.102.097H54v.102h-2.5Zm-.102.102H54v.098h-2.602Zm-.097.098h2.597v.101h-2.597Zm0 .101h2.5v.102h-2.5Zm-.102.102h2.5v.097h-2.5Zm-.097.097h2.5v.102h-2.5Zm-.102.102h2.5v.2H51Zm-.102.2h2.5v.1h-2.5Zm-.097.1h2.5v.098h-2.5Zm-.102.098h2.5v.102h-2.5Zm0 .102h2.403v.098h-2.403Zm-.097.098H53v.101h-2.398Zm-.102.101H53v.102h-2.5Zm-.102.102h2.5v.097h-2.5Zm-.097.097h2.5v.102h-2.5Zm0 .102h2.398v.098h-2.398Zm-.102.098h2.403v.101h-2.403Zm-.097.101H52.5v.102h-2.398Zm-.102.102h2.398v.097H50Zm-.102.097h2.403v.102h-2.403Zm-.097.102h2.398v.098h-2.398Zm-.102.098h2.403v.101h-2.403Zm0 .101H52v.102h-2.3Zm-.097.102h2.296v.097h-2.296Zm-.102.097h2.3v.102h-2.3Zm-.102.102H51.7v.098h-2.3Zm-.097.098h2.3v.101h-2.3Zm-.102.101H51.5v.2h-2.3Zm-.097.2h2.296v.1h-2.296Zm-.102.1h2.3v.099H49Zm-.102.099H51.2v.101h-2.3Zm-.097.101h2.3v.102h-2.3Zm-.102.102H51v.097h-2.3Zm-.097.097h2.296v.102h-2.296Zm0 .102H50.8v.098h-2.2Zm-.102.098h2.2v.101h-2.2Zm-.102.101h2.204v.102h-2.204Zm-.097.102H50.5v.097h-2.2Zm-.102.097h2.2v.102h-2.2Zm-.097.102H50.3v.098h-2.2Zm-.102.098h2.2v.101H48Zm-.102.101h2.204v.102h-2.204Zm-.097.102H50v.097h-2.2Zm-.102.097h2.2v.102h-2.2Zm-.097.102H49.8v.098h-2.2Zm-.102.098h2.2v.101h-2.2Zm-.102.101h2.204v.102h-2.204Zm-.097.102H49.5v.097h-2.2Zm-.102.097h2.2v.102h-2.2Zm-.097.102H49.3v.098h-2.2Zm-.102.098h2.2v.101H47Zm-.102.101h2.204v.102h-2.204Zm-.097.102H49v.097h-2.2Zm0 .097h2v.102h-2Zm-.102.102h2v.098h-2Zm-.097.098h2v.101h-2Zm-.102.101h2v.102h-2Zm-.102.102h2v.097h-2Zm-.097.097h2v.102h-2Zm-.102.102h2v.098h-2Zm-.097.098h2v.101h-2Zm-.204.101h2v.102h-2Zm-.097.102h2v.097h-2Zm-.102.097h2v.102h-2Zm-.097.102h2v.098h-2Zm-.102.098h2v.101h-2Zm-.102.101h2v.102h-2Zm-.097.102h2v.097h-2Zm-.102.097h2v.102h-2Zm-.097.102H47v.098h-1.898Zm-.102.098h1.898v.101H45Zm-.2.101h2v.102h-2Zm-.1.102h2v.097h-2Zm-.098.097h2v.102h-2Zm-.102.102h2v.098h-2Zm-.102.098h2v.101h-2Zm-.097.101h1.898v.102h-1.898Zm-.102.102h1.903v.097h-1.903Zm-.097.097H46v.102h-1.898Zm-.102.102h1.8v.098H44Zm-.102.098H45.7v.101h-1.8Zm-.199.101h1.903v.102h-1.903Zm-.097.102h1.796v.097h-1.796Zm-.102.097h1.8v.102h-1.8Zm-.102.102H45.2v.098h-1.8Zm-.097.098H45v.101h-1.7Zm-.2.101h1.797v.102h-1.796Zm-.101.102h1.8v.097H43Zm-.102.097h1.704v.102h-1.704Zm-.199.102H44.5v.098h-1.8Zm-.097.098h1.796v.101h-1.796Zm-.102.101h1.7v.102h-1.7Zm-.102.102h1.704v.097h-1.704Zm-.199.097H44v.102h-1.8Zm-.097.102H43.8v.098h-1.7Zm-.102.098h1.7v.101H42Zm-.2.101h1.802v.102H41.8Zm-.1.102h1.698v.097H41.7Zm-.098.097H43.3v.102h-1.7Zm-.102.102h1.7v.098h-1.7Zm-.2.098H43v.101h-1.7Zm-.1.101h1.698v.102H41.2Zm-.098.102h1.597v.097h-1.597Zm-.204.097h1.704v.102h-1.704Zm-.097.102h1.597v.098h-1.597Zm-.102.098h1.5v.101h-1.5Zm-.199.101h1.602v.102H40.5Zm-.102.102h1.5v.097h-1.5Zm-.199.097h1.602v.102h-1.602Zm-.097.102h1.5v.098h-1.5Zm-.204.098h1.5v.101h-1.5Zm-.097.101h1.5v.102h-1.5Zm-.2.102h1.5v.097h-1.5Zm-.101.097H41v.102h-1.5Zm-.2.102h1.5v.098h-1.5Zm-.198.098h1.5v.101h-1.5ZM39 65.91h1.5v.102H39Zm-.2.102h1.5v.097h-1.5Zm-.1.097h1.5v.102h-1.5Zm-.2.102H40v.098h-1.5Zm-.102.098h1.5v.101h-1.5Zm-.199.101h1.5v.102h-1.5Zm-.097.102H39.5v.097h-1.398Zm-.204.097h1.403v.102h-1.403Zm-.199.102h1.403v.098h-1.403Zm-.097.098h1.296v.101h-1.296Zm-.204.101H38.7v.102h-1.3Zm-.199.102H38.5v.097h-1.3Zm-.199.097h1.3v.102H37Zm-.2.102h1.302v.098H36.8Zm-.1.098h1.198v.101H36.7Zm-.2.101h1.3v.102h-1.3Zm-.2.102h1.302v.097H36.3Zm-.198.097h1.296v.102h-1.296Zm-.204.102H37.2v.098h-1.3Zm-.199.098H37v.101h-1.3Zm-.097.101H36.8v.102h-1.2Zm-.204.102h1.204v.097h-1.204Zm-.199.097h1.2v.102h-1.2Zm-.199.102h1.2v.098H35Zm-.2.098h1.098v.101h-1.097Zm-.198.101h1.097v.102h-1.097Zm-.301.102h1.097v.097h-1.097Zm-.2.097H35.2v.102h-1.097Zm-.203.102h1v.098h-1Zm-.199.098h1v.101h-1Zm-.3.101h1v.102h-1Zm-.2.102h1v.097h-1Zm-.199.097h.898v.102H33Zm-.2.102h.9v.098h-.9Zm-.3.098h1v.101h-1Zm-.2.101h.9v.102h-.9Zm-.198.102H33v.097h-.898Zm-.301.097h.898v.102h-.898Zm-.301.102h.898v.098H31.5Zm-.3.098h.902v.101h-.903Zm-.2.101h.7v.102H31Zm-.3.102h.698v.097H30.7Zm-.302.097h.704v.102h-.704Zm-.296.102h.699v.098h-.7Zm-.301.098h.597v.101h-.597Zm-.301.101h.602v.102H29.5Zm-.3.102h.5v.097h-.5Zm-.098.097h.199v.102h-.2Zm0 0"/></clipPath><clipPath id="e"><path d="M57.652 4.016C45.801-4.926 25.797 1.55 12.586 18.437c.57-.039 1.277-.085 2-.144C26.44 6.387 42.367 2.645 52.402 10.219c11.375 8.578 10.864 28.445-1.144 44.37-6.176 8.192-14.196 13.731-22.074 16.024 9.226-2.156 18.953-8.617 26.378-18.465 13.2-17.5 14.133-39.046 2.09-48.132"/></clipPath><linearGradient id="f" x1="-.033" x2=".857" y1="0" y2="0" gradientTransform="rotate(.033 -65436.764 27051.497) scale(60.11621)" gradientUnits="userSpaceOnUse"><stop offset="0" stop-color="#b7c95e"/><stop offset=".25" stop-color="#b7c95e"/><stop offset=".313" stop-color="#b7c95e"/><stop offset=".344" stop-color="#b7c95e"/><stop offset=".352" stop-color="#b7c95e"/><stop offset=".355" stop-color="#b9ca5d"/><stop offset=".359" stop-color="#bbca5b"/><stop offset=".363" stop-color="#bdca59"/><stop offset=".367" stop-color="#bfcb58"/><stop offset=".371" stop-color="#c2cb56"/><stop offset=".375" stop-color="#c4cc53"/><stop offset=".379" stop-color="#c6cc52"/><stop offset=".383" stop-color="#c9cc50"/><stop offset=".387" stop-color="#cbcd4e"/><stop offset=".391" stop-color="#cece4d"/><stop offset=".395" stop-color="#d0cd4a"/><stop offset=".398" stop-color="#d2cd48"/><stop offset=".402" stop-color="#d4cd45"/><stop offset=".406" stop-color="#d7ce43"/><stop offset=".41" stop-color="#d9cd40"/><stop offset=".414" stop-color="#dacd3e"/><stop offset=".418" stop-color="#ddcd3b"/><stop offset=".422" stop-color="#dfcd38"/><stop offset=".426" stop-color="#e1cd35"/><stop offset=".43" stop-color="#e3cd32"/><stop offset=".434" stop-color="#e5cd2f"/><stop offset=".438" stop-color="#e7cd2c"/><stop offset=".441" stop-color="#e9cd29"/><stop offset=".445" stop-color="#ebcd27"/><stop offset=".449" stop-color="#edcd24"/><stop offset=".453" stop-color="#efcd22"/><stop offset=".457" stop-color="#f0cd20"/><stop offset=".461" stop-color="#f2cc1e"/><stop offset=".465" stop-color="#f2cc1d"/><stop offset=".469" stop-color="#f3cc1d"/><stop offset=".473" stop-color="#f3cc1c"/><stop offset=".477" stop-color="#f3cb1c"/><stop offset=".48" stop-color="#f3cb1b"/><stop offset=".484" stop-color="#f3cb1b"/><stop offset=".488" stop-color="#f3ca1b"/><stop offset=".492" stop-color="#f3ca1a"/><stop offset=".496" stop-color="#f4c91a"/><stop offset=".5" stop-color="#f4c91a"/><stop offset=".508" stop-color="#f4c91a"/><stop offset=".512" stop-color="#f5c819"/><stop offset=".516" stop-color="#f5c818"/><stop offset=".52" stop-color="#f5c818"/><stop offset=".523" stop-color="#f5c717"/><stop offset=".527" stop-color="#f6c717"/><stop offset=".531" stop-color="#f7c717"/><stop offset=".535" stop-color="#f7c717"/><stop offset=".539" stop-color="#f7c617"/><stop offset=".543" stop-color="#f7c616"/><stop offset=".547" stop-color="#f7c616"/><stop offset=".563" stop-color="#f7c616"/><stop offset=".578" stop-color="#f7c616"/><stop offset=".582" stop-color="#f6c516"/><stop offset=".586" stop-color="#f6c516"/><stop offset=".594" stop-color="#f6c516"/><stop offset=".598" stop-color="#f5c516"/><stop offset=".602" stop-color="#f5c516"/><stop offset=".609" stop-color="#f5c516"/><stop offset=".625" stop-color="#f5c516"/><stop offset=".641" stop-color="#f5c516"/><stop offset=".648" stop-color="#f5c516"/><stop offset=".652" stop-color="#f5c416"/><stop offset=".656" stop-color="#f5c417"/><stop offset=".66" stop-color="#f5c318"/><stop offset=".664" stop-color="#f4c318"/><stop offset=".668" stop-color="#f4c219"/><stop offset=".672" stop-color="#f4c21a"/><stop offset=".676" stop-color="#f4c21b"/><stop offset=".68" stop-color="#f4c21c"/><stop offset=".684" stop-color="#f4c21d"/><stop offset=".688" stop-color="#f4c11e"/><stop offset=".691" stop-color="#f4c11f"/><stop offset=".695" stop-color="#f4c020"/><stop offset=".699" stop-color="#f3c021"/><stop offset=".703" stop-color="#f3bf22"/><stop offset=".707" stop-color="#f3bf23"/><stop offset=".711" stop-color="#f2bf25"/><stop offset=".715" stop-color="#f2be26"/><stop offset=".719" stop-color="#f2be27"/><stop offset=".723" stop-color="#f2bd28"/><stop offset=".727" stop-color="#f2bd29"/><stop offset=".73" stop-color="#f2bd2b"/><stop offset=".734" stop-color="#f2bc2c"/><stop offset=".738" stop-color="#f2bc2e"/><stop offset=".742" stop-color="#f2bc2f"/><stop offset=".746" stop-color="#f3bc30"/><stop offset=".75" stop-color="#f3bb32"/><stop offset=".754" stop-color="#f3bb33"/><stop offset=".758" stop-color="#f3ba35"/><stop offset=".762" stop-color="#f3ba37"/><stop offset=".766" stop-color="#f3b938"/><stop offset=".77" stop-color="#f0ab47"/><stop offset=".773" stop-color="#ed9d55"/><stop offset=".777" stop-color="#ec8f5c"/><stop offset=".781" stop-color="#eb8163"/><stop offset=".785" stop-color="#ea736a"/><stop offset=".789" stop-color="#e96571"/><stop offset=".793" stop-color="#e95678"/><stop offset=".797" stop-color="#e8467d"/><stop offset=".801" stop-color="#e73485"/><stop offset=".805" stop-color="#e5218a"/><stop offset=".809" stop-color="#e51f8b"/><stop offset=".813" stop-color="#e51e8b"/><stop offset=".816" stop-color="#e4228a"/><stop offset=".82" stop-color="#e42588"/><stop offset=".824" stop-color="#e42987"/><stop offset=".828" stop-color="#e32d85"/><stop offset=".832" stop-color="#e33184"/><stop offset=".836" stop-color="#e33682"/><stop offset=".84" stop-color="#e43981"/><stop offset=".844" stop-color="#e53d7f"/><stop offset=".848" stop-color="#e5407e"/><stop offset=".852" stop-color="#e5437d"/><stop offset=".855" stop-color="#e5467b"/><stop offset=".859" stop-color="#e4497a"/><stop offset=".863" stop-color="#e44c79"/><stop offset=".867" stop-color="#e44f77"/><stop offset=".871" stop-color="#e45276"/><stop offset=".875" stop-color="#e45574"/><stop offset=".879" stop-color="#e35973"/><stop offset=".883" stop-color="#e35c72"/><stop offset=".887" stop-color="#e35f70"/><stop offset=".891" stop-color="#e4626f"/><stop offset=".895" stop-color="#e4656d"/><stop offset=".898" stop-color="#e4686c"/><stop offset=".902" stop-color="#e36a6a"/><stop offset=".906" stop-color="#e36c69"/><stop offset=".91" stop-color="#e36f67"/><stop offset=".914" stop-color="#e37166"/><stop offset=".918" stop-color="#e37465"/><stop offset=".922" stop-color="#e27664"/><stop offset=".926" stop-color="#e27962"/><stop offset=".93" stop-color="#e27b61"/><stop offset=".934" stop-color="#e27e60"/><stop offset=".938" stop-color="#e3805f"/><stop offset=".941" stop-color="#e3825d"/><stop offset=".945" stop-color="#e2845b"/><stop offset=".949" stop-color="#e2875a"/><stop offset=".953" stop-color="#e28959"/><stop offset=".957" stop-color="#e28c58"/><stop offset=".961" stop-color="#e28e56"/><stop offset=".965" stop-color="#e29055"/><stop offset=".969" stop-color="#e29354"/><stop offset=".973" stop-color="#e29552"/><stop offset=".977" stop-color="#e29751"/><stop offset=".98" stop-color="#e2994f"/><stop offset=".984" stop-color="#e29c4e"/><stop offset=".988" stop-color="#e29d4c"/><stop offset=".992" stop-color="#e19f4a"/><stop offset=".996" stop-color="#e1a249"/><stop offset="1" stop-color="#e2a448"/></linearGradient></defs><path fill="#2c5ba7" fill-rule="evenodd" d="M177.953 79.035h-7.969c.008-5.117-.34-10.195-1.125-15.293-.168.332-.359.656-.504.996-1.976 4.547-3.96 9.09-5.906 13.649-.219.511-.449.715-1.008.691-1.148-.043-2.3-.039-3.453 0-.5.016-.722-.176-.922-.621-2.058-4.621-4.144-9.234-6.222-13.848-.125-.277-.285-.543-.426-.812-.07.004-.14.012-.211.016-.152 2.507-.363 5.011-.437 7.523-.075 2.527-.016 5.062-.016 7.664h-4.785c1.62-8.469 2.386-17.004 2.754-25.73h1.254c1.332 0 2.668.03 4-.012.566-.02.82.199 1.039.695 2.082 4.73 4.183 9.45 6.297 14.16.382.852.859 1.664 1.351 2.606.176-.285.309-.461.402-.66 2.563-5.286 5-10.625 6.922-16.18.13-.375.278-.629.754-.621 1.594.031 3.188.023 4.781.004.473-.004.618.164.653.636.304 4.114.547 8.235.992 12.332.426 3.915 1.07 7.81 1.621 11.711.047.332.098.664.164 1.094M126.172 23.715c-.02.25-.05.476-.05.703-.005 4.156-.017 8.309.003 12.465.008 1.512.078 3.027.168 4.535.102 1.71.656 2.215 2.352 2.23 2.937.032 5.023-1.375 6.378-3.906 1.43-2.668 1.7-5.566 1.426-8.523-.172-1.844-.75-3.57-1.937-5.04-2.2-2.722-5.207-2.71-8.34-2.464Zm-7.43-3.059c.11-.011.258-.047.41-.047 4.258.008 8.52 0 12.782.043 1.914.02 3.785.328 5.59 1.02 3.687 1.41 5.804 4.074 6.316 7.96.582 4.384-.238 8.43-3.219 11.86-1.906 2.196-4.34 3.574-7.113 4.352-4.602 1.285-9.242 1.074-13.89.285-.579-.098-.759-.336-.696-.941.582-5.813.34-11.645.273-17.465-.027-2.344-.293-4.688-.453-7.067"/><g clip-path="url(#a)"><path fill="#2c5ba7" fill-rule="evenodd" d="M221.36 66.64c2.074.239 3.562-.558 4.202-2.421.368-1.063.602-2.23.602-3.352-.004-3.066-2.02-4.73-4.805-4.078v9.852Zm14.804 12.426c-2.934 0-5.73.012-8.523-.023-.246-.004-.575-.293-.715-.535-1.25-2.176-2.442-4.38-3.696-6.547-.433-.746-.875-1.527-1.957-2.106.168 3.184.329 6.153.493 9.165h-7.899c.801-8.563.809-17.102-.012-25.75h.88c3.476 0 6.952-.032 10.43.02 1.14.015 2.3.144 3.41.386 3.784.84 5.648 3.719 5.093 7.57-.434 3.024-2.176 4.871-4.95 5.887-.241.094-.491.172-.738.265-.042.016-.078.063-.171.145 1.421.715 2.171 2.035 3 3.273 1.707 2.563 3.379 5.153 5.062 7.73.082.13.149.266.293.52"/></g><path fill="#2c5ba7" fill-rule="evenodd" d="M108.55 61.703c0 1.438.02 2.871-.01 4.309-.013.55.179.707.718.707 1.59.011 2.676-.766 3.375-2.117.664-1.286.879-2.688.75-4.106-.242-2.703-1.606-3.902-4.149-3.84-.566.012-.703.219-.695.742.027 1.434.012 2.872.012 4.305Zm.438 17.324h-7.898c.805-8.582.808-17.125-.004-25.722.3-.012.555-.032.812-.035 3.528 0 7.055-.04 10.586.023 1.243.02 2.512.16 3.715.473 3.512.918 5.227 3.8 4.692 7.5-.43 2.988-2.157 4.828-4.895 5.851-.312.117-.629.223-1.082.38 1.445.671 2.152 1.874 2.91 3.007 1.754 2.629 3.461 5.285 5.192 7.933.105.168.199.348.359.63h-3.918c-1.46 0-2.926-.02-4.39.011-.489.012-.731-.16-.962-.582-1.199-2.2-2.41-4.394-3.668-6.558-.43-.743-.847-1.551-1.94-2.024.167 3.121.327 6.07.491 9.113M190.074 46.348h-4.734c.898-8.567.715-17.11.246-25.739 1.734 0 3.375-.027 5.012.028.261.008.55.328.765.558 4.325 4.61 8.64 9.227 12.957 13.84.106.11.227.207.47.43-.02-5.04-.31-9.91-.907-14.817h4.84c-.16 2.036-.375 4.028-.453 6.032-.11 2.918-.149 5.84-.16 8.761-.012 2.95.046 5.903.077 8.856 0 .262-.007.523 0 .781.06 1.309.051 1.2-1.28 1.336-1.688.176-2.79-.441-3.934-1.71-4.2-4.65-8.559-9.157-12.852-13.724-.191-.207-.328-.464-.625-.617-.34 5.375-.21 10.637.578 15.985M109.54 20.648h4.757c-1.11 8.52-.652 17.075-.547 25.73-1.215 0-2.355.028-3.496-.023-.23-.011-.469-.296-.66-.496-4.649-4.953-9.293-9.91-13.938-14.863-.195-.207-.41-.39-.8-.762-.262 5.512.019 10.79.714 16.106h-4.715c.907-8.574.739-17.121.247-25.73 1.734 0 3.375-.016 5.015.019.211 0 .445.215.61.39 4.27 4.555 8.527 9.122 12.793 13.68.203.219.437.41.656.614l.277-.07c-.305-4.856-.61-9.708-.914-14.595"/><g clip-path="url(#b)"><path fill="#2c5ba7" fill-rule="evenodd" d="M160.121 99.895h7.734c-.37 3.668-.785 7.293-.265 11.082-1.344.285-2.649.707-3.98.816-2.645.215-5.313.43-7.962.332-5.476-.2-10.335-3.91-11.585-8.773-1.782-6.926 1.125-14.207 9.308-16.832 3.633-1.165 7.344-1.188 11.07-.52.106.016.207.035.309.066 2.207.621 2.25.696 1.703 2.895-.207.836-.39 1.676-.617 2.508-.063.215-.25.562-.371.558a.98.98 0 0 1-.68-.359c-1.027-1.418-2.293-2.48-4.043-2.902-3.543-.852-6.8.515-8.308 3.82-1.954 4.285-1.907 8.695.12 12.95 1.434 3.015 4.141 4.218 7.423 3.679.554-.094.671-.418.648-.875-.117-2.348-.238-4.695-.367-7.035-.024-.442-.086-.88-.137-1.41"/></g><path fill="#2c5ba7" fill-rule="evenodd" d="M171.059 35.793c-1.043-2.613-2.047-5.117-3.137-7.84-1 2.727-1.922 5.246-2.871 7.84h6.008Zm12.699 10.547c-.387.02-.64.047-.89.047-2.274.004-4.552-.02-6.821.015-.613.008-.914-.152-1.149-.757-.785-2.043-1.664-4.055-2.484-6.086-.16-.395-.367-.555-.809-.551-2.324.02-4.652-.008-6.976.031-.25.004-.633.262-.719.492a153.572 153.572 0 0 0-2.18 6.114c-.19.578-.433.773-1.03.757-1.38-.043-2.759-.015-4.282-.015.348-.715.64-1.313.926-1.91 3.676-7.672 7.238-15.391 10.152-23.391.152-.41.367-.492.75-.484 1.254.015 2.512.035 3.762-.008.586-.024.832.16 1.054.722 2.372 5.907 4.743 11.813 7.2 17.684.925 2.21 2.066 4.332 3.105 6.496.113.23.219.469.39.844M125.367 101.176h6.012l-3.14-7.836c-1.005 2.746-1.927 5.254-2.872 7.836Zm18.695 10.558c-.332.028-.558.063-.785.063-2.351.004-4.703-.016-7.054.016-.543.007-.774-.2-.961-.676a216.564 216.564 0 0 0-2.57-6.219c-.11-.254-.508-.535-.782-.54-2.3-.046-4.597-.019-6.898-.03-.426-.004-.66.117-.809.543-.719 2.093-1.48 4.175-2.191 6.273-.157.469-.367.66-.875.645-1.426-.032-2.856-.008-4.403-.008.961-2.008 1.918-3.856 2.743-5.762 2.789-6.465 5.539-12.945 8.277-19.43.195-.457.406-.632.906-.62 1.254.038 2.508.042 3.762 0 .539-.02.742.175.941.66 2.54 6.257 5.082 12.515 7.688 18.742.797 1.902 1.781 3.718 2.676 5.578.109.222.199.453.335.765M86.39 79.023h-7.93c.743-8.562.747-17.078-.003-25.691.3-.02.574-.059.844-.059 3.27-.003 6.539-.078 9.8.028 1.598.054 3.243.265 4.762.73 2.282.696 3.403 2.465 3.567 4.832.187 2.727-.403 5.18-2.676 6.918-2.145 1.649-4.645 2.02-7.274 1.723-.902-.102-.789-.973-1.207-1.492.157-.07.247-.137.344-.153 2.52-.347 3.356-2.425 3.457-4.285.043-.832.067-1.676 0-2.504-.14-1.734-1.082-2.644-2.824-2.75-1.766-.11-1.441-.125-1.441 1.336-.004 4.547-.043 9.094.05 13.64.047 2.395.348 4.786.532 7.18.007.153 0 .313 0 .547"/><g clip-path="url(#c)"><path fill="#2c5ba7" fill-rule="evenodd" d="M171.938 86.031h7.945c-.117 1.246-.313 2.45-.328 3.66-.075 4.88-.23 9.762-.078 14.637.101 3.32 2.57 5.016 5.93 4.692 3.609-.348 4.85-3.079 5.038-5.954.309-4.699.075-9.394-.394-14.074-.098-.96-.18-1.922-.274-2.937h4.786c-.137 1.652-.31 3.277-.395 4.91-.145 2.71-.227 5.426-.34 8.137-.074 1.773-.055 3.558-.273 5.312-.559 4.438-2.89 6.824-7.305 7.54a19.75 19.75 0 0 1-7.402-.2c-4.196-.914-6.356-3.61-6.399-7.957-.015-1.57.149-3.137.086-4.7-.156-4.199-.39-8.394-.597-12.59-.004-.128 0-.26 0-.476"/></g><path fill="#2c5ba7" fill-rule="evenodd" d="M216.234 107.75c-.093 1.363-.18 2.602-.265 3.871h-16.953c.777-8.492.785-16.984-.008-25.547h15.312v3.84c-2.586-.644-5.175-.969-7.906-.82v1.836c0 1.75.035 3.504-.016 5.254-.023.73.153 1.035.938.964 1.844-.164 3.695-.27 5.543-.406.254-.015.512-.043.82-.07v3.644c-2.414-.152-4.793-.3-7.285-.46 0 .87-.016 1.539.004 2.21.043 1.746.144 3.496.133 5.243-.004.918.5 1.148 1.215 1.113 2.054-.094 4.109-.227 6.16-.375.742-.05 1.48-.188 2.308-.297M210.793 78.918h-16.957c.781-8.461.785-16.977-.012-25.57h15.324v3.82c-1.355-.23-2.652-.512-3.96-.656-1.286-.145-2.583-.149-3.915-.211v8.183c2.418-.14 4.797-.277 7.239-.421v3.53c-2.414-.128-4.793-.253-7.176-.382 0 2.422-.078 4.664.023 6.898.078 1.641.203 1.762 1.887 1.668 2.441-.132 4.879-.445 7.316-.683.13-.016.254-.028.493-.051l-.262 3.875M105.867 89.102c0 2.574.012 5.03-.008 7.484-.004.559.313.578.704.55 1.874-.12 3.75-.245 5.624-.374.282-.02.555-.055.891-.086v3.633c-2.394-.149-4.746-.293-7.21-.45 0 1.051-.016 1.907.003 2.758.04 1.617.133 3.235.14 4.852.005.719.407.941.97.93a109.19 109.19 0 0 0 5.308-.212c1.09-.074 2.168-.28 3.383-.449-.086 1.348-.172 2.61-.254 3.883H98.461c.777-8.504.785-16.996-.012-25.555h15.328v3.844c-2.597-.625-5.183-.984-7.91-.808M142.945 75.04c-.086 1.35-.172 2.64-.254 3.878h-16.964c.796-8.477.796-17.012-.012-25.586h15.273v3.711c-2.113-.234-4.226-.473-6.343-.703-.31-.031-.653-.082-.934.012-.219.074-.524.351-.524.543-.035 2.402-.019 4.808-.015 7.21 0 .075.043.145.117.38l7.055-.422v3.53l-7.184-.39c0 2.008-.012 3.828.012 5.649.004.675.117 1.351.137 2.03.015.513.226.716.742.798 2.07.32 4.11.011 6.156-.258.871-.117 1.746-.242 2.738-.383M95.691 107.742c-.105 1.39-.203 2.649-.296 3.875H78.473c.726-8.488.734-17.004-.012-25.562h7.95c-.052.675-.09 1.34-.157 2.004-.531 5.445-.461 10.906-.41 16.367.008 1.043.144 2.082.176 3.125.02.71.46.898 1.023.879 1.746-.051 3.492-.114 5.234-.239 1.106-.082 2.203-.285 3.414-.449M154.5 46.348h-7.742c.789-8.567.765-17.102-.028-25.688h7.793c-.128 4.309-.347 8.582-.351 12.856-.008 4.25.207 8.5.328 12.832M86.406 46.332H78.48c.739-8.559.715-17.094-.02-25.676h7.95c-.785 8.555-.851 17.086-.004 25.676M189.277 53.32c-.789 8.61-.836 17.125-.015 25.696h-7.922c.765-8.57.719-17.11-.016-25.696h7.953"/><path fill="#fff" fill-rule="evenodd" d="M221.36 66.64v-9.85c2.785-.653 4.8 1.01 4.804 4.077 0 1.121-.234 2.29-.601 3.352-.641 1.863-2.13 2.66-4.204 2.422M58.938 85.18c1.363-1.993 7.308-1.711 9.46.5-.453-.157-.894-.36-1.359-.457-1.535-.325-3.078-.797-4.629-.84-1.148-.035-2.316.508-3.472.797"/><path fill="#2c5ba7" d="M29.246 36.414c.133.566.238 1.14.3 1.73.622-.16 1.204-.468 1.735-.687.012-.008.028-.02.043-.023.145-.098.25-.18.336-.215 0-.594-.058-1.18-.176-1.758a1.525 1.525 0 0 0-.14.02c-.657.39-1.457.664-2.102.87 0 .02.004.04.004.063m-.363-.305c-.09-.425-.188-.984-.406-1.359-.012-.008-.012-.023-.02-.031-.426.136-.848.277-1.273.406-.278.094-.555.188-.848.27-.152.445-.313.898-.457 1.347-.02.047-.024.09-.031.133.238-.035.468-.07.726-.121.66-.14 1.317-.316 1.961-.52.121-.035.23-.086.348-.125M31 33.922a.237.237 0 0 0-.188-.008c-.019.004-.035.016-.05.02a.093.093 0 0 1-.055.02c-.406.16-.82.288-1.168.413-.195.07-.406.133-.605.2l-.114.042c.008.118.024.223.035.332.098.36.2.715.29 1.075.617-.215 1.23-.446 1.828-.72.148-.07.285-.148.425-.233-.046-.172-.09-.344-.14-.512a5.755 5.755 0 0 0-.258-.63m17.746 20.45c-.047-.2-.098-.398-.11-.629-1.222-1.765-2.277-3.613-3.413-5.398-.375-.598-.739-1.293-1.145-1.832-.383-.496-.984-.93-1.473-1.418-1.464-1.473-3.027-2.793-4.562-4.14 1.156-2.263 2.227-4.712 3.465-6.864.414-.719.969-1.485 1.258-2.207.222-.551.312-1.258.472-1.883.485-1.934.89-3.734 1.41-5.66.305-.242.594-.492.575-1.047-.434-.055-.641-.336-.942-.523-.812.378-2.422.218-2.566-.524-.192-1.012 1.242-1.094 1.363-1.781-.367.008-1.035.332-1.203.05.34-.253.777-.413 1.098-.683-.641-.547-1.567-.805-2.356-1.203-.105-.828-.508-1.344-.472-2.305.097-.27.25-.41.328-.773.047-.145.047-.215-.051-.453-.246-.008-.453.043-.59-.036-.277-.265.004-.796-.215-1.152-.113.375-.144.836-.363 1.102a1.55 1.55 0 0 0-.211-.684c.055.785.305 1.379.477 2.047-.586-.098-.801.172-1.305.156 0 .16-.059.266-.172.313-1.18.406-2.605.562-3.668 1.101-.473-.496-.598-1.355-1.04-1.886.196.796.65 1.418.888 2.308 1.55-.426 2.789-1.156 4.453-1.469.16-.18.543-.285.844-.16.035.29.246.637.097.946-.597-.086-.238-.012-.62.109-.13-.07-.157.105-.388.137-.261.09-.394.09-.64.246-.262.113-.215.137-.473.172-.226.105.04 0-.226.105-.25.043-.282.07-.528.156-.375.11-.238.07-.558.16-.493.133-.196.051-.711.188-.746.16-.075-.02-.778.195-.328-.445-.644-.89-1.047-1.261-.168.148-.218-.254-.265-.621-.434-.149-.567-.59-.578-1.157-.145-.027-.364.328-.625.364-.407-.165-.703-.707-1.258-.782-.453-.066-1.16.172-1.727.262-.441.063-.87.078-1.222.176-2.754.262-12.243 1.805-13.985 2.074 1.825-.16 12.106-1.395 14.375-1.902 1.008-.082 2.051-.371 2.98-.348.09.129.177.273.15.52-1.423.48-2.907.62-4.395.84-.864.128-3.582.687-4.094.785-2.2.441-4.695.898-7.125 1.312-.707.121-1.445.238-2.149.367-4.199.766-8.648 1.09-13.046.578-.352-.054-.489.024-.559.086a.774.774 0 0 1 .332-.449c.543-.258 1.2-.508 1.844-.633h.312c.13-.113-.195-.047-.312-.054-.543-.016-1.442.011-1.832 0-.106.14-.297.343-.336.578a9.011 9.011 0 0 0-.133.629v.054c.18.867.305 1.782.781 2.36 1.528.02 2.922.449 4.356.465 1.16.02 2.324-.157 3.46-.207.934-.043 1.872-.028 2.829-.106 1.664-.133 3.363-.562 5.031-.836 5.133-.84 10.191-1.762 14.988-2.781.465-.485.809-1.192 1.832-.836.38.808.688 1.691 1 2.566.77.235 1.34.844 2.305.473-.43-1.984 1.41-2.156 2.617-2.777-.066.195.043.27.055.418 1.078.02.937 1.265 1.41 1.886-1.043-.379-2.105.043-2.773.418-.254.14-.782.422-.836.633-.114.41.172 1.274.258 1.887.093.664.3 1.394.269 1.937-.05.649-.457 1.344-.637 1.887a29.72 29.72 0 0 0-.574 1.992c-1.41 1.278-2.605 2.774-4.14 3.934-.063-.219-.09-.473-.141-.707-.172.16-.375.3-.606.422-.015.007-.023.011-.035.02-.043.027-.09.046-.137.07.051.117.083.246.11.374.113.254.203.508.273.774.035-.02.07-.04.094-.063.11-.097.219-.195.328-.296.082-.125.156-.25.27-.336.117.3-.012.472-.192.629a2.953 2.953 0 0 1-.418.406c.168.734.23 1.5.215 2.219-2.015 1.496-4.84 2.015-7.297 2.164-.722.039-1.425-.563-1.992-.957-.48-.336-.957-.688-1.426-1.047-.004 0-.011-.012-.02-.02-.628-.45-1.198-1.008-1.327-1.824 0-.012-.004-.02-.008-.031.004.004.004.004.008 0a2.59 2.59 0 0 1 .03-.86c.044.223.063.461.083.707.047.118.113.235.148.391.2.648.762.984 1.27 1.371.762.574 1.527 1.148 2.344 1.64.312.18.539.317.883.301v-.007s.003 0 .003.004c.22-.645.446-1.325.668-1.973-.14.012-.277.035-.41.043-.93.05-1.902.453-2.648-.176-.227-.113-.39-.281-.45-.52.352.024.528.223.723.399.117.04.227.07.317.09.078.023.172.031.254.039.535 0 1.03-.035 1.527-.078.02-.012.039-.012.062-.012.258-.047.5-.078.735-.11.14-.425.285-.85.433-1.28.016-.047.024-.087.043-.122-.336.075-.664.149-.992.22-.98.26-1.96.507-2.95.741-.198.04-.37.04-.542.004a.058.058 0 0 1-.027.012c-.004-.008-.012-.012-.012-.016-.23-.058-.43-.191-.598-.449a1.935 1.935 0 0 1-.101-.285c-.207-.344-.313-.762-.18-1.297-.04.832.531 1.633 1.082 1.758.23.004.492-.09.684-.133.14-.031.28-.066.418-.102.007-.003.011-.003.015-.003 0-.004.008-.004.016-.004a87.12 87.12 0 0 0 3.008-.785c1.379-.387 2.754-.79 4.101-1.29.153-.058.305-.12.461-.18.11-.046.149-.058.195-.073.211-.09.418-.188.625-.286.008-.007.012-.007.016-.011l.402-.215c.098-.063.207-.121.297-.196.047-.035.082-.062.11-.078.02-.324 0-.254-.102-.523-.187.05-.469.227-.652.262-.59.129-.442.113-.934.18-.129-.528-.437-.887-.566-1.41.71-.427 1.644-.63 1.676-1.735-.942-.301-1.43-.715-2.297-1.09a11.037 11.037 0 0 1-.739-1.223c-.355-.57-.25-.312-.742-.933-.383-.489-.867-.977-1.273-1.176-.371-.18-.965-.375-1.453-.504-.485-.129-.97-.363-1.465-.367-.336-.008-.774.133-1.153.21-1.093.22-1.414.372-2.101.891-.3.235-.707.497-.89.735-.079.105-.298.36-.368.469-.148.261-.289.359-.414.593-.227.426-.223.477-.371.77-.356.726-.684 1.48-.824 2.383.02 2.547 1.488 3.558 1.976 5.636.035-.28-.156-.609 0-.84.176.266.11.77.164 1.157.39.445 1.063.613 1.262 1.254-.5-.09-.898-.84-1.285-.868.621.528 1.18 1.106 1.86 1.446.097.05.245 0 .363.054.57.262 1 .95 1.515 1.098.238.074.297-.031.477.227-1.188.203-1.535-1.39-2.242-1.063-.536.242-.657.164-1.274.262-.098.492.527 1.215.617 1.684.41.585.016.874.367 1.515.368.332.59.418.907.625.18 1.242.058 2.559.468 3.777.461.903 1.524 1.504 2.258 2.301.801.875 1.89 1.805 2.508 2.418 2.16 2.094 4.23 3.844 6.457 5.864.563.511 1.91 1.472 2.195 2.101.25.54.344 1.27.52 1.934.18.656.469 1.367.527 1.941.121 1.04-.265 2.031 0 3.145.043.175.157.37.297.574 4.285-2.766 8.34-6.363 11.836-10.719.258-.32.504-.64.75-.969-.289-.277-.621-.504-1.082-.574M25.63 37.457c-.008.016-.008.035-.02.055-.156.46-.308.922-.468 1.386-.043.133-.067.235-.094.293a19.369 19.369 0 0 0 2.941-.453c.184-.043.356-.101.54-.152.238-.102.519-.227.71-.3-.015-.15-.02-.302-.027-.356-.055-.5-.145-.996-.258-1.489-.062.024-.14.047-.203.067-.555.18-1.113.34-1.68.465-.453.12-.902.226-1.336.261-.039.075-.066.149-.105.223m8.851-23.34c-.085-.555.305-.62.625-.777.11-.008.22-.012.34-.02.27.035.407.356.559.489.027-.262.168-.403.297-.559.203-.02.418-.047.625-.07.32.05.297.449.547.574-.04-.656.914-.813 1.308-.422-.004-.184-.074-.3-.105-.473l-4.551.473c-.258-.008-.488 0-.586.055.566-.008.648.472.941.73m5.711-1.222c.286-.008.567.011.864.074.039.011.086.011.113.015.11.047.121.204.285.196.18-.125.484-.117.785-.106.223.114.309.364.477.52.113-.434.738-.551 1.097-.313.243.16.114.426.368.528-.059-.368.168-.442.39-.52.2.031.235.09.325.18.015.02.101.238.101.238.102.336.184.676.305 1.008.086.238.113.527.191.664h-.004v.262c-.172.09-.394.129-.629.16.067.195.223.297.262.523-.422.328-.996-.176-1.414 0 .016.367.336.43.422.735-.277.5-.852.066-1.309.05-.215-.011-.386.141-.582.102-.195-.04-.37-.398-.523-.207-.047.195.574.3.472.574.801-.043 1.34.672 2.094.735.196.015.438-.086.63-.051.585.097 1.136 1.093 1.194 2.617 0-.348.274-2.375.274-2.727.36-.14.605-.41.95-.574.046-.629.085-1.277.148-1.883-.582-.101-1.207-.183-1.793-.289-.157-.511-.414-1.894-1.004-2.168.008-.004.015-.004.023-.008-.484-.27-1.277-.285-1.805-.312-.37-.02-.742-.023-1.109-.016-.168.004-.512.082-.672.024-.363-.14-.586-.219-.972-.172-.122.066-.16.11-.168.137-.082.086-.188.191-.043.234.027-.129.14-.168.257-.23M69.762 77.39c-.235.212-.297.337-.426.516-.184.168-.184.188-.367.375-.32.34-.227.34-.64.66-.2.2-.317.274-.665.57-.394.368-.66.509-1.156.907-.473.383-.832.719-1.363 1.156-.172.13-.715.469-1.707.977-.41.254-.926.511-1.489.386.477-.453.934-1.062 1.625-1.628.985-.797 2.582-1.047 2.516-2.461-.035-.707-.293-1.34-.555-1.977.172-.11.36-.223.488-.324.305-.23.7-.426 1.036-.598.472-.238.96-.281 1.492-.172.523.106.832.61 1.074 1.059.11.207.191.41.137.555M52.77 80.625c-1.286-.45-2.86-1.129-4.711-.727-.02.04-.051.051-.051.102.113-.133 1.41.008 1.047.055-1.016.058-2.153.105-2.938.363 1.488-1.441 4.766-1.121 6.504-.156.281.14.324.16.559.304.18.383-.047.18-.41.059m-8.239 21.7c-.058.491.047.812-.515.726-.903-.145-.922-.844-1.29-1.383a10.89 10.89 0 0 1-.652-1.055c.207-.531.328-.328.848-.433.488-.11 1.043-.332 1.293-.332.254 0 .133-.18.297.824.144.84.078 1.11.02 1.652m-12.259 6.617c-.386.41-1.035.395-2.523.329-1.484-.07-1.39-.122-2.238-.493-.711-.297-.942-.191-.782-2.058.172-1.98 1.715-1.617 3.395-1.082 1.703.531 1.715.707 1.793 1.062.086.36.422 1.418.422 1.418s.191.555-.067.824m37.809-31.609a2.478 2.478 0 0 0-.305-.879c-.273-.402-.672-.73-1.148-.851-1.133-.305-2.277.441-3.137 1.16-.172-.407-.344-.828-.457-1.27l-.836-1.777c-.316-.774-.933-1.235-1.097-2.153-1.692-2.484-2.489-5.859-5.04-7.496-.519-.644-1.062-1.273-1.718-1.78-.688-1.177-2.059-1.618-2.469-2.99-.094-.304 0-.73-.156-1.046-.102-.207-.39-.277-.688-.527-.226-.196-.43-.485-.617-.625-.184-.133-.383-.25-.574-.368-4.305 4.594-9.117 8.192-14.031 10.66.043.063.093.13.136.188.442.652 1.035 1.223 1.133 2.043.04.363.215.684.262 1.031.027.29.148.516.262.774.132.312.105.636.132.965.02.273.137.496.203.754.028.12-.039.246 0 .359.024.078.11.105.145.176.078.187.04.48.09.687.074.371.195.746.168 1.133-.05.797.12 1.621.183 2.41.106 1.195.141 2.39.106 3.582a35.762 35.762 0 0 1-.125 1.848c-.035.312-.074.625-.11.933-.03.196-.015.778-.14.915-.668.73-.906 1.695-1.524 2.414-.46.535-1.164.957-1.73 1.41-.336.277-.676.558-1.016.836-.257.215-.597.39-.789.68-.14.202-.222.468-.336.702-.257.551-.543 1.094-.824 1.645-.2.379-.336.781-.52 1.164-.171.336-.402.613-.609.926-.25.367-.32.808-.656 1.137a8.23 8.23 0 0 0-.66.765c-.488.63-.695.871-1.14 1.528-.442.664-.848 1.445-1.364 1.996-.457.484-1.102.875-1.621 1.304-.55.45-1.059.754-1.621 1.328-.352.711-.27 1.54-.426 2.293-.066.32-.262.555-.262.895 0 .371.184.793.262 1.195.148.766-.035 1.828.605 2.39.75.653 1.985.977 2.93.977 1.578-.144 2.766-.257 4.383-.378.418-.188.316-1.012.3-1.149-.019-.246-.156-.387.012-.633 2.13-2.62 3.86-5.64 6.497-7.75.367.524.824 1.004 1.253 1.57.391.493.778 1.254 1.262 1.57.57.38 1.192.688 1.988.731.875-.464.45-4.125 1.313-5.554.64-.121 1.125-.418 1.734-.575 3.903-3.925 8.285-7.925 12.47-11.738.605-.55 1.233-1.254 1.835-1.625 1.11-.68 2.434-.918 3.563-1.52 1.843-2.171 4.855-5.64 4.519-6.39"/><path fill="#b6ca5f" d="M9.438 23.16c-2.29 3.645-4.075 7.402-5.364 11.14a48.927 48.927 0 0 1 6.227-10.921c.058-.086.125-.164.187-.246-.351.012-.703.02-1.05.027"/><g clip-path="url(#d)"><g clip-path="url(#e)"><path fill="url(#f)" d="m12.586-.02-.04 70.633 53.556.032.035-70.633Zm0 0"/></g></g></svg>